<svg width="16" height="16" viewBox="0 0 8 8" fill="none" xmlns="http://www.w3.org/2000/svg">
<g clip-path="url(#clip0_1_164)">
<path d="M3.97528 2.42015C3.04962 2.42015 2.30298 3.16294 2.30298 4.08384C2.30298 5.00473 3.04962 5.74752 3.97528 5.74752C4.90094 5.74752 5.64758 5.00473 5.64758 4.08384C5.64758 3.16294 4.90094 2.42015 3.97528 2.42015ZM3.97528 5.16545C3.37709 5.16545 2.88806 4.68039 2.88806 4.08384C2.88806 3.48728 3.37564 3.00222 3.97528 3.00222C4.57492 3.00222 5.0625 3.48728 5.0625 4.08384C5.0625 4.68039 4.57347 5.16545 3.97528 5.16545ZM6.10605 2.35209C6.10605 2.56784 5.9314 2.74014 5.71599 2.74014C5.49913 2.74014 5.32593 2.56639 5.32593 2.35209C5.32593 2.1378 5.50058 1.96405 5.71599 1.96405C5.9314 1.96405 6.10605 2.1378 6.10605 2.35209ZM7.21364 2.74594C7.1889 2.22612 7.06955 1.76568 6.68677 1.38632C6.30544 1.00695 5.84261 0.888224 5.32011 0.862161C4.7816 0.831754 3.16751 0.831754 2.62899 0.862161C2.10795 0.886776 1.64511 1.00551 1.26233 1.38487C0.879552 1.76423 0.761661 2.22468 0.735463 2.74449C0.704899 3.28023 0.704899 4.886 0.735463 5.42174C0.760205 5.94155 0.879552 6.40199 1.26233 6.78135C1.64511 7.16072 2.10649 7.27945 2.62899 7.30551C3.16751 7.33592 4.7816 7.33592 5.32011 7.30551C5.84261 7.28089 6.30544 7.16216 6.68677 6.78135C7.0681 6.40199 7.18744 5.94155 7.21364 5.42174C7.24421 4.886 7.24421 3.28167 7.21364 2.74594ZM6.51794 5.99657C6.40441 6.28037 6.18464 6.49901 5.89792 6.61339C5.46856 6.7828 4.44975 6.74371 3.97528 6.74371C3.50081 6.74371 2.48054 6.78135 2.05264 6.61339C1.76737 6.50045 1.5476 6.28181 1.43262 5.99657C1.26233 5.56943 1.30163 4.55587 1.30163 4.08384C1.30163 3.61181 1.26379 2.5968 1.43262 2.1711C1.54614 1.8873 1.76592 1.66867 2.05264 1.55428C2.48199 1.38487 3.50081 1.42396 3.97528 1.42396C4.44975 1.42396 5.47002 1.38632 5.89792 1.55428C6.18319 1.66722 6.40296 1.88586 6.51794 2.1711C6.68823 2.59825 6.64893 3.61181 6.64893 4.08384C6.64893 4.55587 6.68823 5.57087 6.51794 5.99657Z" fill="white"/>
</g>
<defs>
<clipPath id="clip0_1_164">
<rect width="6.58976" height="7.41348" fill="white" transform="translate(0.731049 0.378296)"/>
</clipPath>
</defs>
</svg>
