<svg width="16" height="16" viewBox="0 0 9 6" fill="none" xmlns="http://www.w3.org/2000/svg">
<g clip-path="url(#clip0_1_154)">
<path d="M8.10314 0.904674C7.82845 1.02184 7.5371 1.09874 7.23876 1.13283C7.54951 0.953506 7.78812 0.669535 7.90047 0.331188C7.60506 0.499971 7.28186 0.61889 6.94483 0.682806C6.67029 0.401208 6.27919 0.22522 5.84632 0.22522C5.01518 0.22522 4.34132 0.873995 4.34132 1.67418C4.34132 1.78776 4.35464 1.89834 4.38029 2.00441C3.12954 1.94397 2.02063 1.36712 1.27834 0.490457C1.14883 0.704463 1.07461 0.953395 1.07461 1.21891C1.07461 1.72163 1.34032 2.16512 1.74412 2.42498C1.50513 2.41777 1.2714 2.35562 1.06244 2.24372C1.06235 2.24979 1.06235 2.25586 1.06235 2.26195C1.06235 2.964 1.5811 3.54966 2.26955 3.68277C2.04793 3.7408 1.81547 3.74929 1.58993 3.7076C1.78142 4.28327 2.33723 4.70217 2.99575 4.7139C2.4807 5.10251 1.83177 5.33417 1.12671 5.33417C1.00521 5.33417 0.88544 5.3273 0.7677 5.31392C1.43371 5.72505 2.22476 5.96493 3.07464 5.96493C5.84282 5.96493 7.35653 3.75698 7.35653 1.84222C7.35653 1.77937 7.3551 1.71688 7.35217 1.65475C7.6468 1.44968 7.9011 1.19568 8.10314 0.904674" fill="white"/>
</g>
<defs>
<clipPath id="clip0_1_154">
<rect width="7.41348" height="5.76604" fill="white" transform="translate(0.78067 0.202393)"/>
</clipPath>
</defs>
</svg>
